<svg xmlns="http://www.w3.org/2000/svg" viewBox="0 0 300 78" width="300" height="78" role="img" aria-label="RedMed">
  <defs>
    <linearGradient id="redType" x1="0" y1="0" x2="1" y2="1">
      <stop offset="0%" stop-color="#fb7185"></stop>
      <stop offset="100%" stop-color="#e11d48"></stop>
    </linearGradient>
  </defs>
  <rect x="3" y="4" width="70" height="70" rx="18" fill="#E11D2E"></rect>
  <g transform="translate(38 39) scale(2.05) translate(-16 -14)">
    <path d="M23.6,0c-3.4,0-6.3,2.1-7.6,5c-1.3-3-4.2-5-7.6-5C3.8,0,0,3.8,0,8.4c0,9.4,9.5,11.9,16,21.6c6.2-9.6,16-12.5,16-21.6C32,3.8,28.2,0,23.6,0z" fill="#FFFFFF"></path>
    <polyline points="7,14 12.15,14 14.3,11 16.8,18 18.97,14 25,14" fill="none" stroke="#E11D2E" stroke-width="1.6" stroke-linecap="round" stroke-linejoin="round"></polyline>
  </g>
  <text x="88" y="50" font-family="-apple-system, &#39;Helvetica Neue&#39;, Helvetica, Arial, sans-serif" font-size="37" font-weight="700" letter-spacing="-0.6">
    <tspan fill="url(#redType)">Red</tspan><tspan fill="#111111">Med</tspan>
  </text>
</svg>