<svg xmlns="http://www.w3.org/2000/svg" width="512" height="512" viewBox="0 0 512 512" role="img" aria-label="RedMed symbol">
  <defs>
    <linearGradient id="cross" x1="0.2" y1="0" x2="0.85" y2="1">
      <stop offset="0%" stop-color="#f6d4a3"/>
      <stop offset="40%" stop-color="#d4a05c"/>
      <stop offset="100%" stop-color="#8a5a28"/>
    </linearGradient>
    <linearGradient id="snake" x1="0.15" y1="0" x2="0.9" y2="1">
      <stop offset="0%" stop-color="#fb7185"/>
      <stop offset="50%" stop-color="#e11d48"/>
      <stop offset="100%" stop-color="#9f1239"/>
    </linearGradient>
    <filter id="soft" x="-20%" y="-20%" width="140%" height="140%">
      <feDropShadow dx="0" dy="4" stdDeviation="8" flood-color="#9f1239" flood-opacity="0.16"/>
    </filter>
  </defs>
  <g transform="translate(256 262) scale(0.92) translate(-256 -250)" filter="url(#soft)">
    <g fill="url(#cross)">
      <rect x="226" y="84" width="60" height="332" rx="30"/>
      <rect x="144" y="166" width="224" height="60" rx="30"/>
    </g>
    <g fill="#fff8ef" fill-opacity="0.28">
      <rect x="238" y="98" width="18" height="304" rx="9"/>
      <rect x="158" y="180" width="196" height="18" rx="9"/>
    </g>
    <g stroke-linecap="round" stroke-linejoin="round" fill="none">
      <path stroke="#1c1917" stroke-width="39" opacity="0.12"
            d="M 189 410 C 165 365, 159 305, 196 260 C 235 210, 345 205, 339 150 C 334 105, 300 84, 274 74"/>
      <path stroke="url(#snake)" stroke-width="29"
            d="M 189 410 C 165 365, 159 305, 196 260 C 235 210, 345 205, 339 150 C 334 105, 300 84, 274 74"/>
    </g>
    <circle cx="274" cy="72" r="20" fill="#1c1917" opacity="0.14"/>
    <circle cx="274" cy="72" r="17" fill="url(#snake)"/>
    <circle cx="281" cy="67" r="4" fill="#fff7f8"/>
  </g>
</svg>
